<svg width="22" height="18" viewBox="0 0 22 18" fill="none" xmlns="http://www.w3.org/2000/svg">
<path d="M2.5 3.75C2.5 3.55109 2.42098 3.36032 2.28033 3.21967C2.13968 3.07902 1.94891 3 1.75 3C1.55109 3 1.36032 3.07902 1.21967 3.21967C1.07902 3.36032 1 3.55109 1 3.75V16.75C1 17.44 1.56 18 2.25 18H19.75C20.44 18 21 17.44 21 16.75V3.75C21 3.55109 20.921 3.36032 20.7803 3.21967C20.6397 3.07902 20.4489 3 20.25 3C20.0511 3 19.8603 3.07902 19.7197 3.21967C19.579 3.36032 19.5 3.55109 19.5 3.75V9H17.002C17.3314 8.2077 17.5006 7.35803 17.5 6.5C17.5 5.476 17.038 4.56 16.442 3.8C15.843 3.035 15.064 2.369 14.315 1.827C13.3903 1.16464 12.4081 0.586655 11.38 0.0999999L11.327 0.0749998L11.312 0.0679998L11.308 0.066H11.306C11.2094 0.022683 11.1048 0.000288486 10.999 0.000288486C10.8932 0.000288486 10.7886 0.022683 10.692 0.066H10.69L10.686 0.0679998L10.671 0.0749998L10.618 0.0999999C10.5713 0.120667 10.5067 0.151667 10.424 0.193C9.46647 0.65989 8.54991 1.20648 7.684 1.827C6.935 2.369 6.156 3.035 5.557 3.799C4.962 4.56 4.5 5.476 4.5 6.5C4.5 7.386 4.677 8.23 4.998 9H2.5V3.75ZM15.331 9H6.67C6.23111 8.23992 6.00004 7.3777 6 6.5C6 5.936 6.257 5.34 6.739 4.724C7.219 4.112 7.876 3.54 8.565 3.042C9.33522 2.48875 10.1496 1.99977 11 1.58C11.8503 1.99913 12.6647 2.48744 13.435 3.04C14.124 3.539 14.782 4.111 15.261 4.723C15.744 5.339 16 5.935 16 6.499C16 7.409 15.756 8.264 15.331 8.999M19.5 16.499H13.5V14.499C13.5 13.836 13.2366 13.2001 12.7678 12.7312C12.2989 12.2624 11.663 11.999 11 11.999C10.337 11.999 9.70107 12.2624 9.23223 12.7312C8.76339 13.2001 8.5 13.836 8.5 14.499V16.499H2.5V10.499H19.5V16.499ZM10 14.499C10 14.2338 10.1054 13.9794 10.2929 13.7919C10.4804 13.6044 10.7348 13.499 11 13.499C11.2652 13.499 11.5196 13.6044 11.7071 13.7919C11.8946 13.9794 12 14.2338 12 14.499V16.499H10V14.499ZM2.75 1C2.75 1.26522 2.64464 1.51957 2.45711 1.70711C2.26957 1.89464 2.01522 2 1.75 2C1.48478 2 1.23043 1.89464 1.04289 1.70711C0.855357 1.51957 0.75 1.26522 0.75 1C0.75 0.734784 0.855357 0.48043 1.04289 0.292893C1.23043 0.105357 1.48478 0 1.75 0C2.01522 0 2.26957 0.105357 2.45711 0.292893C2.64464 0.48043 2.75 0.734784 2.75 1ZM20.25 2C20.5152 2 20.7696 1.89464 20.9571 1.70711C21.1446 1.51957 21.25 1.26522 21.25 1C21.25 0.734784 21.1446 0.48043 20.9571 0.292893C20.7696 0.105357 20.5152 0 20.25 0C19.9848 0 19.7304 0.105357 19.5429 0.292893C19.3554 0.48043 19.25 0.734784 19.25 1C19.25 1.26522 19.3554 1.51957 19.5429 1.70711C19.7304 1.89464 19.9848 2 20.25 2Z" fill="black"/>
</svg>
