<svg width="24" height="24" viewBox="0 0 24 24" fill="none" xmlns="http://www.w3.org/2000/svg">
<path d="M19.9285 19.7006H21.3034C21.7581 19.7006 22.1941 19.5199 22.5156 19.1985C22.8371 18.877 23.0177 18.4409 23.0177 17.9863V13.6406C23.0177 13.1859 22.8371 12.7499 22.5156 12.4284C22.1941 12.1069 21.7581 11.9263 21.3034 11.9263H20.3571M20.3571 11.9263V5.7857C20.3571 5.33104 20.1765 4.895 19.855 4.57351C19.5335 4.25202 19.0975 4.07141 18.6428 4.07141H2.88854C2.43388 4.07141 1.99785 4.25202 1.67636 4.57351C1.35487 4.895 1.17426 5.33104 1.17426 5.7857V18.2314C1.17426 19.0423 1.83254 19.7006 2.6434 19.7006H3.42854M20.3571 11.9263H1.17426M20.3571 7.2137H1.17426M7.65254 7.2137V11.9194M13.7674 7.2137V11.9194" stroke="black" stroke-width="1.5" stroke-linecap="round" stroke-linejoin="round"/>
<path d="M8.20456 19.6766C8.20456 20.3113 7.95243 20.92 7.50362 21.3688C7.05482 21.8176 6.44612 22.0697 5.81142 22.0697C5.17672 22.0697 4.56801 21.8176 4.11921 21.3688C3.67041 20.92 3.41827 20.3113 3.41827 19.6766C3.41827 19.0419 3.67041 18.4332 4.11921 17.9844C4.56801 17.5356 5.17672 17.2834 5.81142 17.2834C6.44612 17.2834 7.05482 17.5356 7.50362 17.9844C7.95243 18.4332 8.20456 19.0419 8.20456 19.6766ZM8.20456 19.6766H15.144M15.144 19.6766C15.144 20.3113 15.3961 20.92 15.8449 21.3688C16.2937 21.8176 16.9024 22.0697 17.5371 22.0697C18.1718 22.0697 18.7805 21.8176 19.2293 21.3688C19.6781 20.92 19.9303 20.3113 19.9303 19.6766C19.9303 19.0419 19.6781 18.4332 19.2293 17.9844C18.7805 17.5356 18.1718 17.2834 17.5371 17.2834C16.9024 17.2834 16.2937 17.5356 15.8449 17.9844C15.3961 18.4332 15.144 19.0419 15.144 19.6766Z" stroke="black" stroke-width="1.5" stroke-linecap="round" stroke-linejoin="round"/>
</svg>
