<svg width="32" height="32" viewBox="0 0 32 32" fill="none" xmlns="http://www.w3.org/2000/svg">
<path d="M23.9543 27.3339C22.7771 25.9027 21.2975 24.75 19.6218 23.9586C17.9461 23.1672 16.116 22.7567 14.2628 22.7567C12.4097 22.7567 10.5795 23.1672 8.90386 23.9586C7.2282 24.75 5.74861 25.9027 4.57141 27.3339" stroke="black" stroke-width="1.5" stroke-linecap="round" stroke-linejoin="round"/>
<path d="M15.9542 22.8769C16.0914 17.7112 17.6685 13.0026 21.0971 11.3112M14.2628 6.9683C15.7445 6.67655 17.2816 6.96433 18.5574 7.77232C19.8332 8.58032 20.7504 9.84695 21.12 11.3112" stroke="black" stroke-width="1.5" stroke-linecap="round" stroke-linejoin="round"/>
<path d="M29.4628 12.157C28.4107 11.021 26.9802 10.3083 25.4398 10.1525C23.8994 9.99681 22.3551 10.4088 21.097 11.3113" stroke="black" stroke-width="1.5" stroke-linecap="round" stroke-linejoin="round"/>
<path d="M12.7087 13.7569C13.6044 12.4374 14.932 11.4713 16.463 11.0249C17.9941 10.5786 19.6328 10.6798 21.0973 11.3112C22.5663 11.6705 23.8381 12.5866 24.6442 13.8661C25.4502 15.1456 25.7275 16.6883 25.4173 18.1684" stroke="black" stroke-width="1.5" stroke-linecap="round" stroke-linejoin="round"/>
</svg>
