<svg width="32" height="32" viewBox="0 0 32 32" fill="none" xmlns="http://www.w3.org/2000/svg">
<path fill-rule="evenodd" clip-rule="evenodd" d="M13.3334 16.2949V14.7838C13.3333 14.409 13.5683 14.0745 13.921 13.9474L15.2764 13.4594C15.7436 13.2913 16.2547 13.2913 16.7218 13.4594L18.0791 13.9484C18.4315 14.0753 18.6664 14.4094 18.6667 14.7838V16.2949C18.6667 17.4265 17.0836 18.2638 16.3556 18.5901C16.1295 18.6921 15.8706 18.6921 15.6444 18.5901C14.9164 18.2638 13.3334 17.4248 13.3334 16.2949Z" stroke="black" stroke-width="1.5" stroke-linecap="round" stroke-linejoin="round"/>
<path d="M18.6667 22.6667H13.3334" stroke="black" stroke-width="1.5" stroke-linecap="round" stroke-linejoin="round"/>
<path d="M22.6667 8H9.33337C7.12424 8 5.33337 9.79086 5.33337 12V24C5.33337 26.2091 7.12424 28 9.33337 28H22.6667C24.8758 28 26.6667 26.2091 26.6667 24V12C26.6667 9.79086 24.8758 8 22.6667 8Z" stroke="black" stroke-width="1.5" stroke-linecap="round" stroke-linejoin="round"/>
<path d="M5.33337 23.5898V10.1881C5.33337 8.65206 6.28436 7.27646 7.72137 6.73385L18.0351 2.83947C18.5215 2.63959 19.0622 2.6143 19.5651 2.76788C20.6103 3.09454 21.3248 4.0587 21.3334 5.15367V7.58975" stroke="black" stroke-width="1.5" stroke-linecap="round" stroke-linejoin="round"/>
</svg>
