<svg width="32" height="32" viewBox="0 0 32 32" fill="none" xmlns="http://www.w3.org/2000/svg">
<path d="M13 6C12.9116 6 12.8268 6.03512 12.7643 6.09763C12.7018 6.16014 12.6667 6.24493 12.6667 6.33333V11.6667C12.6667 11.9319 12.5613 12.1862 12.3738 12.3738C12.1862 12.5613 11.9319 12.6667 11.6667 12.6667H6.33333C6.24493 12.6667 6.16014 12.7018 6.09763 12.7643C6.03512 12.8268 6 12.9116 6 13V19C6 19.184 6.14933 19.3333 6.33333 19.3333H11.6667C11.9319 19.3333 12.1862 19.4387 12.3738 19.6262C12.5613 19.8138 12.6667 20.0681 12.6667 20.3333V25.6667C12.6667 25.8507 12.816 26 13 26H19C19.0884 26 19.1732 25.9649 19.2357 25.9024C19.2982 25.8399 19.3333 25.7551 19.3333 25.6667V20.3333C19.3333 20.0681 19.4387 19.8138 19.6262 19.6262C19.8138 19.4387 20.0681 19.3333 20.3333 19.3333H25.6667C25.7551 19.3333 25.8399 19.2982 25.9024 19.2357C25.9649 19.1732 26 19.0884 26 19V13C26 12.9116 25.9649 12.8268 25.9024 12.7643C25.8399 12.7018 25.7551 12.6667 25.6667 12.6667H20.3333C20.0681 12.6667 19.8138 12.5613 19.6262 12.3738C19.4387 12.1862 19.3333 11.9319 19.3333 11.6667V6.33333C19.3333 6.24493 19.2982 6.16014 19.2357 6.09763C19.1732 6.03512 19.0884 6 19 6H13ZM10.6667 6.33333C10.6667 5.04533 11.712 4 13 4H19C20.288 4 21.3333 5.04533 21.3333 6.33333V10.6667H25.6667C26.9547 10.6667 28 11.712 28 13V19C28 19.6188 27.7542 20.2123 27.3166 20.6499C26.879 21.0875 26.2855 21.3333 25.6667 21.3333H21.3333V25.6667C21.3333 26.2855 21.0875 26.879 20.6499 27.3166C20.2123 27.7542 19.6188 28 19 28H13C12.3812 28 11.7877 27.7542 11.3501 27.3166C10.9125 26.879 10.6667 26.2855 10.6667 25.6667V21.3333H6.33333C5.71449 21.3333 5.121 21.0875 4.68342 20.6499C4.24583 20.2123 4 19.6188 4 19V13C4 11.712 5.04533 10.6667 6.33333 10.6667H10.6667V6.33333Z" fill="black"/>
</svg>
