<svg width="18" height="14" viewBox="0 0 18 14" fill="none" xmlns="http://www.w3.org/2000/svg">
<path d="M17.364 7.70698C17.5514 7.51945 17.6567 7.26514 17.6567 6.99998C17.6567 6.73481 17.5514 6.4805 17.364 6.29298L11.707 0.635977C11.6147 0.540466 11.5044 0.464284 11.3824 0.411875C11.2604 0.359466 11.1291 0.33188 10.9964 0.330726C10.8636 0.329572 10.7319 0.354874 10.609 0.405155C10.4861 0.455436 10.3744 0.529689 10.2806 0.623582C10.1867 0.717474 10.1124 0.829126 10.0621 0.952022C10.0118 1.07492 9.98655 1.2066 9.9877 1.33938C9.98885 1.47216 10.0164 1.60338 10.0688 1.72538C10.1213 1.84738 10.1974 1.95773 10.293 2.04998L14.243 5.99998L0.999952 5.99998C0.734735 5.99998 0.480381 6.10533 0.292845 6.29287C0.105308 6.48041 -4.79639e-05 6.73476 -4.79755e-05 6.99998C-4.79871e-05 7.26519 0.105308 7.51955 0.292844 7.70708C0.480381 7.89462 0.734735 7.99998 0.999952 7.99998L14.243 7.99998L10.293 11.95C10.1108 12.1386 10.01 12.3912 10.0123 12.6534C10.0146 12.9156 10.1197 13.1664 10.3051 13.3518C10.4905 13.5372 10.7414 13.6424 11.0036 13.6447C11.2657 13.6469 11.5183 13.5461 11.707 13.364L17.364 7.70698Z" fill="black"/>
</svg>
