<svg width="351" height="34" viewBox="0 0 351 34" fill="none" xmlns="http://www.w3.org/2000/svg">
<path d="M12 16.9707L339 16.9707" stroke="#D9D9D9" stroke-dasharray="7 7"/>
<g opacity="0.5">
<path d="M20.5604 8.8808C21.1504 9.4708 21.1504 10.4208 20.5604 11.0008L16.6704 14.8908L18.7904 24.0808L17.3804 25.5008L13.5004 18.0708L9.60043 21.9708L9.96043 24.4408L8.89043 25.5008L7.13043 22.3208L3.94043 20.5508L5.00043 19.4708L7.50043 19.8408L11.3704 15.9708L3.94043 12.0608L5.36043 10.6508L14.5504 12.7708L18.4404 8.8808C19.0004 8.3008 20.0004 8.3008 20.5604 8.8808Z" fill="black"/>
</g>
<g opacity="0.5" clip-path="url(#clip0_945_1381)">
<path d="M186.774 17.3029C186.774 18.1373 186.102 18.809 185.275 18.8019L179.773 18.8019L174.774 26.7993L172.773 26.8064L175.283 18.809L169.768 18.809L168.276 20.8101L166.77 20.803L167.774 17.3099L166.77 13.8027L168.283 13.7885L169.789 15.8179L175.262 15.8179L172.773 7.79936L174.774 7.80643L179.773 15.8038L185.275 15.8038C186.081 15.7897 186.788 16.4968 186.774 17.3029Z" fill="black"/>
</g>
<g opacity="0.5">
<path d="M330.44 8.8808C329.85 9.4708 329.85 10.4208 330.44 11.0008L334.33 14.8908L332.21 24.0808L333.62 25.5008L337.5 18.0708L341.4 21.9708L341.04 24.4408L342.11 25.5008L343.87 22.3208L347.06 20.5508L346 19.4708L343.5 19.8408L339.63 15.9708L347.06 12.0608L345.64 10.6508L336.45 12.7708L332.56 8.8808C332 8.3008 331 8.3008 330.44 8.8808Z" fill="black"/>
</g>
<defs>
<clipPath id="clip0_945_1381">
<rect width="24" height="24" fill="white" transform="translate(175) rotate(45)"/>
</clipPath>
</defs>
</svg>
