<svg width="18" height="14" viewBox="0 0 18 14" fill="none" xmlns="http://www.w3.org/2000/svg">
<path d="M0.635987 6.29302C0.448516 6.48055 0.3432 6.73486 0.3432 7.00002C0.3432 7.26519 0.448516 7.5195 0.635987 7.70702L6.29299 13.364C6.38523 13.4595 6.49558 13.5357 6.61758 13.5881C6.73959 13.6405 6.87081 13.6681 7.00359 13.6693C7.13637 13.6704 7.26804 13.6451 7.39094 13.5948C7.51384 13.5446 7.62549 13.4703 7.71938 13.3764C7.81327 13.2825 7.88753 13.1709 7.93781 13.048C7.98809 12.9251 8.01339 12.7934 8.01224 12.6606C8.01108 12.5278 7.9835 12.3966 7.93109 12.2746C7.87868 12.1526 7.8025 12.0423 7.70699 11.95L3.75699 8.00002L17 8.00002C17.2652 8.00002 17.5196 7.89467 17.7071 7.70713C17.8946 7.51959 18 7.26524 18 7.00002C18 6.73481 17.8946 6.48045 17.7071 6.29292C17.5196 6.10538 17.2652 6.00002 17 6.00002L3.75699 6.00002L7.70699 2.05002C7.88914 1.86142 7.98994 1.60882 7.98766 1.34662C7.98538 1.08443 7.88021 0.833612 7.69481 0.648204C7.5094 0.462797 7.25858 0.357627 6.99639 0.355348C6.73419 0.35307 6.48159 0.453864 6.29299 0.636022L0.635987 6.29302Z" fill="black"/>
</svg>
