<svg width="36" height="26" viewBox="0 0 36 26" fill="none" xmlns="http://www.w3.org/2000/svg">
<path d="M35.6414 5.80007C35.6414 5.80007 35.2898 3.31804 34.207 2.2282C32.8359 0.793823 31.3031 0.786792 30.6 0.702417C25.5656 0.336792 18.007 0.336792 18.007 0.336792H17.993C17.993 0.336792 10.4344 0.336792 5.4 0.702417C4.69688 0.786792 3.16406 0.793823 1.79297 2.2282C0.710156 3.31804 0.365625 5.80007 0.365625 5.80007C0.365625 5.80007 0 8.71804 0 11.629V14.3571C0 17.268 0.358594 20.186 0.358594 20.186C0.358594 20.186 0.710156 22.668 1.78594 23.7579C3.15703 25.1923 4.95703 25.143 5.75859 25.2977C8.64141 25.5719 18 25.6563 18 25.6563C18 25.6563 25.5656 25.6423 30.6 25.2837C31.3031 25.1993 32.8359 25.1923 34.207 23.7579C35.2898 22.668 35.6414 20.186 35.6414 20.186C35.6414 20.186 36 17.2751 36 14.3571V11.629C36 8.71804 35.6414 5.80007 35.6414 5.80007ZM14.2805 17.6688V7.55085L24.0047 12.6274L14.2805 17.6688Z" fill="black"/>
</svg>
